<svg xmlns="http://www.w3.org/2000/svg" width="24" height="24" viewBox="0 0 24 24">
  <g id="Raggruppa_777" data-name="Raggruppa 777" transform="translate(-148 -338.087)">
    <g id="Componente_205_2" data-name="Componente 205 – 2" transform="translate(150 340.087)">
      <g id="Discount">
        <path id="Stroke_1" data-name="Stroke 1" d="M2.21,4.655A2.445,2.445,0,0,1,4.654,2.21H5.766A2.447,2.447,0,0,0,7.488,1.5L8.265.721a2.445,2.445,0,0,1,3.458-.01h0l.01.009.778.778a2.443,2.443,0,0,0,1.722.71h1.111A2.445,2.445,0,0,1,17.79,4.655v1.11a2.445,2.445,0,0,0,.71,1.723l.778.778a2.445,2.445,0,0,1,.011,3.458h0l-.01.01-.778.778a2.438,2.438,0,0,0-.71,1.721v1.112a2.444,2.444,0,0,1-2.444,2.444H14.232a2.442,2.442,0,0,0-1.722.711l-.778.777a2.444,2.444,0,0,1-3.456.013l0,0-.01-.01L7.486,18.5a2.446,2.446,0,0,0-1.722-.711H4.654A2.444,2.444,0,0,1,2.21,15.346V14.231A2.439,2.439,0,0,0,1.5,12.511l-.777-.778A2.443,2.443,0,0,1,.71,8.277s0,0,0,0l.01-.01L1.5,7.485A2.444,2.444,0,0,0,2.21,5.762V4.655" transform="translate(0 0)" fill="none" stroke="#000" stroke-linecap="round" stroke-linejoin="round" stroke-miterlimit="10" stroke-width="2"/>
        <path id="Stroke_3" data-name="Stroke 3" d="M0,2.565,2.566,5.13,7.7,0" transform="translate(6.485 7.566)" fill="none" stroke="#000" stroke-linecap="round" stroke-linejoin="round" stroke-miterlimit="10" stroke-width="2"/>
      </g>
    </g>
    <rect id="Rettangolo_2086" data-name="Rettangolo 2086" width="24" height="24" transform="translate(148 338.087)" fill="none"/>
  </g>
</svg>
