<svg xmlns="http://www.w3.org/2000/svg" width="24" height="24" viewBox="0 0 24 24">
  <g id="Raggruppa_861" data-name="Raggruppa 861" transform="translate(-290 -289.087)">
    <g id="Edit_Square" data-name="Edit Square" transform="translate(291.25 290.337)">
      <path id="Stroke_1" data-name="Stroke 1" d="M9.265,0H5.3C2.043,0,0,2.307,0,5.574v8.812c0,3.266,2.034,5.574,5.3,5.574h9.352c3.27,0,5.3-2.307,5.3-5.574V10.116" transform="translate(0.75 0.791)" fill="none" stroke="#000" stroke-linecap="round" stroke-linejoin="round" stroke-miterlimit="10" stroke-width="2"/>
      <path id="Stroke_3" data-name="Stroke 3" d="M.773,8.66,8.693.739a2.528,2.528,0,0,1,3.573,0l1.29,1.29a2.526,2.526,0,0,1,0,3.573L5.6,13.56a2.3,2.3,0,0,1-1.627.674H0l.1-4.006A2.3,2.3,0,0,1,.773,8.66Z" transform="translate(6.419 0.75)" fill="none" stroke="#000" stroke-linecap="round" stroke-linejoin="round" stroke-miterlimit="10" stroke-width="2"/>
      <path id="Stroke_5" data-name="Stroke 5" d="M0,0,4.839,4.839" transform="translate(13.908 2.713)" fill="none" stroke="#000" stroke-linecap="round" stroke-linejoin="round" stroke-miterlimit="10" stroke-width="2"/>
    </g>
    <rect id="Rettangolo_2171" data-name="Rettangolo 2171" width="24" height="24" transform="translate(290 289.087)" fill="none"/>
  </g>
</svg>
