<svg xmlns="http://www.w3.org/2000/svg" width="24" height="24" viewBox="0 0 24 24">
  <g id="Raggruppa_796" data-name="Raggruppa 796" transform="translate(-818 -242.087)">
    <g id="_3_User" data-name="3 User" transform="translate(820 246.087)">
      <path id="Stroke_1" data-name="Stroke 1" d="M0,5.677A2.876,2.876,0,0,0,2.472,2.836,2.875,2.875,0,0,0,.066,0" transform="translate(16.138 0.97)" fill="none" stroke="#000" stroke-linecap="round" stroke-linejoin="round" stroke-miterlimit="10" stroke-width="2"/>
      <path id="Stroke_3" data-name="Stroke 3" d="M0,0C1.351.2,2.294.675,2.294,1.65c0,.671-.444,1.107-1.162,1.381" transform="translate(17.979 10)" fill="none" stroke="#000" stroke-linecap="round" stroke-linejoin="round" stroke-miterlimit="10" stroke-width="2"/>
      <path id="Stroke_5" data-name="Stroke 5" d="M5.959,0C2.745,0,0,.487,0,2.432S2.728,4.877,5.959,4.877c3.214,0,5.958-.482,5.958-2.428S9.19,0,5.959,0Z" transform="translate(4.178 10.414)" fill="none" stroke="#000" stroke-linecap="round" stroke-linejoin="round" stroke-miterlimit="10" stroke-width="2"/>
      <path id="Stroke_7" data-name="Stroke 7" d="M3.819,7.638a3.805,3.805,0,1,0-.028,0Z" transform="translate(6.318)" fill="none" stroke="#000" stroke-linecap="round" stroke-linejoin="round" stroke-miterlimit="10" stroke-width="2"/>
      <path id="Stroke_9" data-name="Stroke 9" d="M2.472,5.677A2.871,2.871,0,0,1,2.406,0" transform="translate(1.663 0.97)" fill="none" stroke="#000" stroke-linecap="round" stroke-linejoin="round" stroke-miterlimit="10" stroke-width="2"/>
      <path id="Stroke_11" data-name="Stroke 11" d="M2.294,0C.943.2,0,.675,0,1.65c0,.671.444,1.107,1.162,1.381" transform="translate(0 10)" fill="none" stroke="#000" stroke-linecap="round" stroke-linejoin="round" stroke-miterlimit="10" stroke-width="2"/>
    </g>
    <rect id="Rettangolo_2105" data-name="Rettangolo 2105" width="24" height="24" transform="translate(818 242.087)" fill="none"/>
  </g>
</svg>
