<svg xmlns="http://www.w3.org/2000/svg" width="24" height="24" viewBox="0 0 24 24">
  <g id="Raggruppa_787" data-name="Raggruppa 787" transform="translate(-625 -289.087)">
    <g id="Filter" transform="translate(627 291.087)">
      <path id="Stroke_1" data-name="Stroke 1" d="M1.739,0A1.754,1.754,0,0,0,0,1.767v1.04A2.832,2.832,0,0,0,.766,4.746L6.15,10.471l0,0a5.73,5.73,0,0,1,1.624,4v5.08a.442.442,0,0,0,.65.4l3.066-1.671A1.454,1.454,0,0,0,12.245,17V14.457a5.725,5.725,0,0,1,1.606-3.986l5.384-5.725A2.836,2.836,0,0,0,20,2.807V1.767A1.753,1.753,0,0,0,18.262,0Z" transform="translate(0 0)" fill="none" stroke="#000" stroke-linecap="round" stroke-linejoin="round" stroke-miterlimit="10" stroke-width="2"/>
    </g>
    <rect id="Rettangolo_2101" data-name="Rettangolo 2101" width="24" height="24" transform="translate(625 289.087)" fill="none"/>
  </g>
</svg>
