<svg xmlns="http://www.w3.org/2000/svg" width="24" height="24" viewBox="0 0 24 24">
  <g id="Raggruppa_850" data-name="Raggruppa 850" transform="translate(-385 -241.087)">
    <g id="Volume_Up" data-name="Volume Up" transform="translate(387 246.478)">
      <path id="Stroke_1" data-name="Stroke 1" d="M0,7.369c0,1.294-.061,3.06.74,3.72.747.616,1.273.457,2.636.557s4.245,4.113,6.465,2.844c1.145-.9,1.231-2.789,1.231-7.12s-.085-6.22-1.231-7.12c-2.22-1.27-5.1,2.743-6.465,2.844S1.489,3.033.742,3.649C-.059,4.309,0,6.074,0,7.369Z" transform="translate(0 0)" fill="none" stroke="#000" stroke-linecap="round" stroke-linejoin="round" stroke-miterlimit="10" stroke-width="2"/>
      <path id="Stroke_3" data-name="Stroke 3" d="M0,0A11.217,11.217,0,0,1,0,12.833" transform="translate(17.983 0.952)" fill="none" stroke="#000" stroke-linecap="round" stroke-linejoin="round" stroke-miterlimit="10" stroke-width="2"/>
      <path id="Stroke_5" data-name="Stroke 5" d="M0,0A7.788,7.788,0,0,1,0,7.76" transform="translate(15.349 3.489)" fill="none" stroke="#000" stroke-linecap="round" stroke-linejoin="round" stroke-miterlimit="10" stroke-width="2"/>
    </g>
    <rect id="Rettangolo_2160" data-name="Rettangolo 2160" width="24" height="24" transform="translate(385 241.087)" fill="none"/>
  </g>
</svg>
