<svg xmlns="http://www.w3.org/2000/svg" width="24" height="24" viewBox="0 0 24 24">
  <g id="Raggruppa_853" data-name="Raggruppa 853" transform="translate(-626 -241.087)">
    <g id="Camera" transform="translate(627.25 243.338)">
      <path id="Stroke_1" data-name="Stroke 1" d="M13.286.326c1.092.435,1.426,1.948,1.872,2.435a2.1,2.1,0,0,0,1.439.652,3.4,3.4,0,0,1,3.4,3.4v6.265a4.563,4.563,0,0,1-4.562,4.562H4.562A4.562,4.562,0,0,1,0,13.078V6.814a3.4,3.4,0,0,1,3.4-3.4,2.1,2.1,0,0,0,1.439-.652c.446-.486.779-2,1.871-2.435A16.737,16.737,0,0,1,13.286.326Z" transform="translate(0.75 0.75)" fill="none" stroke="#000" stroke-linecap="round" stroke-linejoin="round" stroke-miterlimit="10" stroke-width="2"/>
      <path id="Stroke_13" data-name="Stroke 13" d="M.5.5H.5" transform="translate(16.196 6.466)" fill="none" stroke="#000" stroke-linecap="round" stroke-linejoin="round" stroke-miterlimit="10" stroke-width="2"/>
      <path id="Stroke_5" data-name="Stroke 5" d="M6.358,3.179A3.179,3.179,0,1,0,3.179,6.358,3.179,3.179,0,0,0,6.358,3.179Z" transform="translate(7.571 7.773)" fill="none" stroke="#000" stroke-linecap="round" stroke-linejoin="round" stroke-miterlimit="10" stroke-width="2"/>
    </g>
    <rect id="Rettangolo_2163" data-name="Rettangolo 2163" width="24" height="24" transform="translate(626 241.087)" fill="none"/>
  </g>
</svg>
