<svg xmlns="http://www.w3.org/2000/svg" width="24" height="24" viewBox="0 0 24 24">
  <g id="Raggruppa_865" data-name="Raggruppa 865" transform="translate(-673 -288.087)">
    <g id="Image" transform="translate(674.25 289.337)">
      <path id="Stroke_1" data-name="Stroke 1" d="M20,5.579V14.41c0,3.272-2.048,5.58-5.32,5.58H5.309C2.037,19.989,0,17.681,0,14.41V5.579C0,2.307,2.048,0,5.309,0H14.68C17.952,0,20,2.307,20,5.579Z" transform="translate(0.75 0.75)" fill="none" stroke="#000" stroke-linecap="round" stroke-linejoin="round" stroke-miterlimit="10" stroke-width="2"/>
      <path id="Stroke_3" data-name="Stroke 3" d="M0,4.137,1.7,2.524a1.692,1.692,0,0,1,2.208-.06l1.045.952a1.731,1.731,0,0,0,2.26.02C7.257,3.4,9.818.614,9.818.614A2.032,2.032,0,0,1,12.466.385c.054.04,2.473,2.267,2.473,2.267" transform="translate(3.281 11.32)" fill="none" stroke="#000" stroke-linecap="round" stroke-linejoin="round" stroke-miterlimit="10" stroke-width="2"/>
      <path id="Stroke_5" data-name="Stroke 5" d="M3.508,1.754A1.754,1.754,0,1,1,1.754,0,1.754,1.754,0,0,1,3.508,1.754Z" transform="translate(5.222 5.856)" fill="none" stroke="#000" stroke-linecap="round" stroke-linejoin="round" stroke-miterlimit="10" stroke-width="2"/>
    </g>
    <rect id="Rettangolo_2175" data-name="Rettangolo 2175" width="24" height="24" transform="translate(673 288.087)" fill="none"/>
  </g>
</svg>
