<svg xmlns="http://www.w3.org/2000/svg" width="24" height="24" viewBox="0 0 24 24">
  <g id="Raggruppa_831" data-name="Raggruppa 831" transform="translate(-817 -145.087)">
    <g id="Paper_Upload" data-name="Paper Upload" transform="translate(820.25 146.337)">
      <path id="Stroke_1" data-name="Stroke 1" d="M11.42,0H4.176A4.16,4.16,0,0,0,0,4.061V15.754a4.146,4.146,0,0,0,4.056,4.233c.04,0,.081,0,.12,0h8.7a4.211,4.211,0,0,0,4.062-4.233V5.746Z" transform="translate(0.75 0.763)" fill="none" stroke="#000" stroke-linecap="round" stroke-linejoin="round" stroke-miterlimit="10" stroke-width="2"/>
      <path id="Stroke_3" data-name="Stroke 3" d="M0,0V3.168a2.8,2.8,0,0,0,2.8,2.8h3" transform="translate(11.885 0.75)" fill="none" stroke="#000" stroke-linecap="round" stroke-linejoin="round" stroke-miterlimit="10" stroke-width="2"/>
      <path id="Stroke_5" data-name="Stroke 5" d="M.5,0V6.579" transform="translate(8.299 8.546)" fill="none" stroke="#000" stroke-linecap="round" stroke-linejoin="round" stroke-miterlimit="10" stroke-width="2"/>
      <path id="Stroke_7" data-name="Stroke 7" d="M5.108,2.565,2.554,0,0,2.565" transform="translate(6.246 8.547)" fill="none" stroke="#000" stroke-linecap="round" stroke-linejoin="round" stroke-miterlimit="10" stroke-width="2"/>
    </g>
    <rect id="Rettangolo_2141" data-name="Rettangolo 2141" width="24" height="24" transform="translate(817 145.087)" fill="none"/>
  </g>
</svg>
