<svg xmlns="http://www.w3.org/2000/svg" width="24" height="24" viewBox="0 0 24 24">
  <g id="Raggruppa_870" data-name="Raggruppa 870" transform="translate(-1009 -288.087)">
    <g id="Unlock" transform="translate(1013 290.087)">
      <path id="Stroke_1" data-name="Stroke 1" d="M9.591,3.31A4.933,4.933,0,0,0,0,4.9V7.241" transform="translate(3.3)" fill="none" stroke="#000" stroke-linecap="round" stroke-linejoin="round" stroke-miterlimit="10" stroke-width="2"/>
      <path id="Stroke_3" data-name="Stroke 3" d="M12.36,12.836H4.1A4.1,4.1,0,0,1,0,8.736V4.1A4.1,4.1,0,0,1,4.1,0h8.26a4.1,4.1,0,0,1,4.1,4.1V8.736A4.1,4.1,0,0,1,12.36,12.836Z" transform="translate(0 7.164)" fill="none" stroke="#000" stroke-linecap="round" stroke-linejoin="round" stroke-miterlimit="10" stroke-width="2"/>
      <path id="Stroke_5" data-name="Stroke 5" d="M.5,0V2.4" transform="translate(7.73 12.381)" fill="none" stroke="#000" stroke-linecap="round" stroke-linejoin="round" stroke-miterlimit="10" stroke-width="2"/>
    </g>
    <rect id="Rettangolo_2180" data-name="Rettangolo 2180" width="24" height="24" transform="translate(1009 288.087)" fill="none"/>
  </g>
</svg>
