<svg xmlns="http://www.w3.org/2000/svg" width="24" height="24" viewBox="0 0 24 24">
  <g id="Raggruppa_792" data-name="Raggruppa 792" transform="translate(-194 -242.087)">
    <g id="Document" transform="translate(197 244.087)">
      <path id="Stroke_1" data-name="Stroke 1" d="M7.844.5H0" transform="translate(5.155 14.137)" fill="none" stroke="#000" stroke-linecap="round" stroke-linejoin="round" stroke-miterlimit="10" stroke-width="2"/>
      <path id="Stroke_2" data-name="Stroke 2" d="M7.844.5H0" transform="translate(5.155 9.589)" fill="none" stroke="#000" stroke-linecap="round" stroke-linejoin="round" stroke-miterlimit="10" stroke-width="2"/>
      <path id="Stroke_3" data-name="Stroke 3" d="M2.993.5H0" transform="translate(5.156 5.052)" fill="none" stroke="#000" stroke-linecap="round" stroke-linejoin="round" stroke-miterlimit="10" stroke-width="2"/>
      <path id="Stroke_4" data-name="Stroke 4" d="M13.208,0,4.855,0A4.618,4.618,0,0,0,0,5V15a4.622,4.622,0,0,0,4.9,5l8.353,0A4.619,4.619,0,0,0,18.1,15V5A4.623,4.623,0,0,0,13.208,0Z" fill="none" stroke="#000" stroke-linecap="round" stroke-linejoin="round" stroke-miterlimit="10" stroke-width="2"/>
    </g>
    <rect id="Rettangolo_2088" data-name="Rettangolo 2088" width="24" height="24" transform="translate(194 242.087)" fill="none"/>
  </g>
</svg>
