<svg xmlns="http://www.w3.org/2000/svg" width="24" height="24" viewBox="0 0 24 24">
  <g id="Raggruppa_782" data-name="Raggruppa 782" transform="translate(-517 -397.087)">
    <rect id="Rettangolo_2093" data-name="Rettangolo 2093" width="24" height="24" transform="translate(517 397.087)" fill="none"/>
    <path id="share-alt" d="M17.974,13.98A3.993,3.993,0,0,0,14.9,15.458L9.807,13.112a3.634,3.634,0,0,0,0-2.256L14.9,8.509a3.993,3.993,0,1,0-.918-2.516,4.163,4.163,0,0,0,.07.709L8.779,9.128a3.993,3.993,0,1,0,0,5.711l5.271,2.426a4.163,4.163,0,0,0-.07.709,3.993,3.993,0,1,0,3.993-3.993Zm0-9.984a2,2,0,1,1-2,2A2,2,0,0,1,17.974,4ZM5.993,13.98a2,2,0,1,1,2-2A2,2,0,0,1,5.993,13.98Zm11.98,5.99a2,2,0,1,1,2-2A2,2,0,0,1,17.974,19.971Z" transform="translate(517.006 397.12)" fill="#131313"/>
  </g>
</svg>
