<svg xmlns="http://www.w3.org/2000/svg" width="24" height="24" viewBox="0 0 24 24">
  <g id="Raggruppa_937" data-name="Raggruppa 937" transform="translate(-531 -291.087)">
    <g id="Hide" transform="translate(532.25 293.338)">
      <path id="Stroke_1" data-name="Stroke 1" d="M1,5.832a3.377,3.377,0,0,1-1-2.41A3.416,3.416,0,0,1,5.831,1" transform="translate(7.329 5.855)" fill="none" stroke="#707070" stroke-linecap="round" stroke-linejoin="round" stroke-miterlimit="10" stroke-width="2"/>
      <path id="Stroke_3" data-name="Stroke 3" d="M2.743,0A3.414,3.414,0,0,1,0,2.748" transform="translate(11.364 9.884)" fill="none" stroke="#707070" stroke-linecap="round" stroke-linejoin="round" stroke-miterlimit="10" stroke-width="2"/>
      <path id="Stroke_5" data-name="Stroke 5" d="M4.222,13.663A14.519,14.519,0,0,1,0,7.9,14.694,14.694,0,0,1,4.253,2.1,9.225,9.225,0,0,1,10,0a9.248,9.248,0,0,1,5.769,2.116" transform="translate(0.75 1.382)" fill="none" stroke="#707070" stroke-linecap="round" stroke-linejoin="round" stroke-miterlimit="10" stroke-width="2"/>
      <path id="Stroke_7" data-name="Stroke 7" d="M10.789,0a16.6,16.6,0,0,1,1.948,3.4c-2.126,4.926-5.884,7.894-10,7.894A8.628,8.628,0,0,1,0,10.849" transform="translate(8.012 5.875)" fill="none" stroke="#707070" stroke-linecap="round" stroke-linejoin="round" stroke-miterlimit="10" stroke-width="2"/>
      <path id="Stroke_9" data-name="Stroke 9" d="M17.053,0,0,17.053" transform="translate(2.224 0.75)" fill="none" stroke="#707070" stroke-linecap="round" stroke-linejoin="round" stroke-miterlimit="10" stroke-width="2"/>
    </g>
    <rect id="Rettangolo_2099" data-name="Rettangolo 2099" width="24" height="24" transform="translate(531 291.087)" fill="none"/>
  </g>
</svg>
