<svg xmlns="http://www.w3.org/2000/svg" width="24" height="24" viewBox="0 0 24 24">
  <g id="Raggruppa_801" data-name="Raggruppa 801" transform="translate(-579 -193.087)">
    <g id="Ticket_Star" data-name="Ticket Star" transform="translate(581 196.087)">
      <path id="Stroke_1" data-name="Stroke 1" d="M16.332,18.018A3.668,3.668,0,0,0,20,14.352V11.431A2.421,2.421,0,1,1,20,6.59h0V3.671A3.667,3.667,0,0,0,16.337,0H3.669A3.669,3.669,0,0,0,0,3.667H0V6.684A2.338,2.338,0,0,1,2.418,8.939c0,.024,0,.048,0,.071A2.418,2.418,0,0,1,.006,11.431H0V14.35a3.667,3.667,0,0,0,3.666,3.668H16.332Z" fill="none" stroke="#000" stroke-linecap="round" stroke-linejoin="round" stroke-miterlimit="10" stroke-width="2"/>
      <path id="Stroke_3" data-name="Stroke 3" d="M3.679.25,4.345,1.6a.448.448,0,0,0,.336.245l1.489.217a.448.448,0,0,1,.249.764L5.341,3.874a.45.45,0,0,0-.13.4l.254,1.481a.448.448,0,0,1-.65.472l-1.331-.7a.445.445,0,0,0-.417,0l-1.33.7a.448.448,0,0,1-.651-.472L1.341,4.27a.447.447,0,0,0-.13-.4L.136,2.825a.448.448,0,0,1,.248-.764l1.489-.217A.449.449,0,0,0,2.21,1.6L2.874.25A.449.449,0,0,1,3.679.25Z" transform="translate(6.722 5.494)" fill="none" stroke="#000" stroke-linecap="round" stroke-linejoin="round" stroke-miterlimit="10" stroke-width="2"/>
    </g>
    <rect id="Rettangolo_2109" data-name="Rettangolo 2109" width="24" height="24" transform="translate(579 193.087)" fill="none"/>
  </g>
</svg>
