<svg xmlns="http://www.w3.org/2000/svg" width="24" height="24" viewBox="0 0 24 24">
  <g id="Raggruppa_839" data-name="Raggruppa 839" transform="translate(-482 -193.087)">
    <g id="Bag" transform="translate(484.199 194.309)">
      <path id="Path_33955" d="M13.747,15.46H5.062c-3.19,0-5.638-1.166-4.943-5.86l.81-6.361C1.357.9,2.833,0,4.128,0h10.59c1.314,0,2.7.964,3.2,3.238l.81,6.361C19.319,13.764,16.938,15.46,13.747,15.46Z" transform="translate(0.801 5.318)" fill="none" stroke="#000" stroke-linecap="round" stroke-linejoin="round" stroke-miterlimit="10" stroke-width="2"/>
      <path id="Path_33956" d="M8.659,4.32A4.32,4.32,0,0,0,4.339,0h0A4.32,4.32,0,0,0,0,4.32H0" transform="translate(5.856 0.778)" fill="none" stroke="#000" stroke-linecap="round" stroke-linejoin="round" stroke-miterlimit="10" stroke-width="2"/>
      <path id="Line_192" d="M.481.458H.435" transform="translate(12.801 9.501)" fill="none" stroke="#000" stroke-linecap="round" stroke-linejoin="round" stroke-miterlimit="10" stroke-width="2"/>
      <path id="Line_193" d="M.481.458H.435" transform="translate(6.733 9.501)" fill="none" stroke="#000" stroke-linecap="round" stroke-linejoin="round" stroke-miterlimit="10" stroke-width="2"/>
    </g>
    <rect id="Rettangolo_2149" data-name="Rettangolo 2149" width="24" height="24" transform="translate(482 193.087)" fill="none"/>
  </g>
</svg>
