<svg xmlns="http://www.w3.org/2000/svg" width="24" height="24" viewBox="0 0 24 24">
  <g id="Raggruppa_825" data-name="Raggruppa 825" transform="translate(-341 -145.087)">
    <g id="Category" transform="translate(342.999 147.087)">
      <path id="Stroke_1" data-name="Stroke 1" d="M0,3.889C0,.972.031,0,3.889,0S7.778.972,7.778,3.889,7.79,7.778,3.889,7.778,0,6.806,0,3.889Z" transform="translate(0.001)" fill="none" stroke="#000" stroke-linecap="round" stroke-linejoin="round" stroke-miterlimit="10" stroke-width="2"/>
      <path id="Stroke_3" data-name="Stroke 3" d="M0,3.889C0,.972.031,0,3.889,0S7.778.972,7.778,3.889,7.79,7.778,3.889,7.778,0,6.806,0,3.889Z" transform="translate(12.223)" fill="none" stroke="#000" stroke-linecap="round" stroke-linejoin="round" stroke-miterlimit="10" stroke-width="2"/>
      <path id="Stroke_5" data-name="Stroke 5" d="M0,3.889C0,.972.031,0,3.889,0S7.778.972,7.778,3.889,7.79,7.778,3.889,7.778,0,6.806,0,3.889Z" transform="translate(0.001 12.222)" fill="none" stroke="#000" stroke-linecap="round" stroke-linejoin="round" stroke-miterlimit="10" stroke-width="2"/>
      <path id="Stroke_7" data-name="Stroke 7" d="M0,3.889C0,.972.031,0,3.889,0S7.778.972,7.778,3.889,7.79,7.778,3.889,7.778,0,6.806,0,3.889Z" transform="translate(12.223 12.222)" fill="none" stroke="#000" stroke-linecap="round" stroke-linejoin="round" stroke-miterlimit="10" stroke-width="2"/>
    </g>
    <rect id="Rettangolo_2135" data-name="Rettangolo 2135" width="24" height="24" transform="translate(341 145.087)" fill="none"/>
  </g>
</svg>
