<svg xmlns="http://www.w3.org/2000/svg" width="24" height="24" viewBox="0 0 24 24">
  <g id="Raggruppa_851" data-name="Raggruppa 851" transform="translate(-434 -241.087)">
    <g id="Volume_Down" data-name="Volume Down" transform="translate(436 244.087)">
      <path id="Stroke_1" data-name="Stroke 1" d="M0,8.995c0,1.58-.074,3.735.9,4.541.912.751,1.554.558,3.218.68s5.182,5.02,7.892,3.471c1.4-1.1,1.5-3.4,1.5-8.692S13.414,1.4,12.016.3C9.306-1.247,5.79,3.651,4.124,3.774S1.818,3.7.906,4.454C-.072,5.26,0,7.415,0,8.995Z" transform="translate(0 0)" fill="none" stroke="#000" stroke-linecap="round" stroke-linejoin="round" stroke-miterlimit="10" stroke-width="2"/>
      <path id="Stroke_5" data-name="Stroke 5" d="M0,0A9.507,9.507,0,0,1,0,9.472" transform="translate(18.736 4.259)" fill="none" stroke="#000" stroke-linecap="round" stroke-linejoin="round" stroke-miterlimit="10" stroke-width="2"/>
    </g>
    <rect id="Rettangolo_2161" data-name="Rettangolo 2161" width="24" height="24" transform="translate(434 241.087)" fill="none"/>
  </g>
</svg>
