<svg xmlns="http://www.w3.org/2000/svg" width="24" height="24" viewBox="0 0 24 24">
  <g id="Raggruppa_830" data-name="Raggruppa 830" transform="translate(-769 -145.087)">
    <g id="Paper_Download" data-name="Paper Download" transform="translate(772.25 146.337)">
      <path id="Stroke_1" data-name="Stroke 1" d="M11.42,0H4.176A4.16,4.16,0,0,0,0,4.061V15.755a4.146,4.146,0,0,0,4.056,4.233c.04,0,.081,0,.12,0h8.7a4.211,4.211,0,0,0,4.062-4.233V5.746Z" transform="translate(0.75 0.762)" fill="none" stroke="#000" stroke-linecap="round" stroke-linejoin="round" stroke-miterlimit="10" stroke-width="2"/>
      <path id="Stroke_3" data-name="Stroke 3" d="M0,0V2.909A2.575,2.575,0,0,0,2.569,5.484H5.323" transform="translate(12.359 0.75)" fill="none" stroke="#000" stroke-linecap="round" stroke-linejoin="round" stroke-miterlimit="10" stroke-width="2"/>
      <path id="Stroke_5" data-name="Stroke 5" d="M.5,6.041V0" transform="translate(8.3 8.858)" fill="none" stroke="#000" stroke-linecap="round" stroke-linejoin="round" stroke-miterlimit="10" stroke-width="2"/>
      <path id="Stroke_7" data-name="Stroke 7" d="M0,0,2.345,2.355,4.69,0" transform="translate(6.439 12.702)" fill="none" stroke="#000" stroke-linecap="round" stroke-linejoin="round" stroke-miterlimit="10" stroke-width="2"/>
    </g>
    <rect id="Rettangolo_2140" data-name="Rettangolo 2140" width="24" height="24" transform="translate(769 145.087)" fill="none"/>
  </g>
</svg>
