<svg xmlns="http://www.w3.org/2000/svg" width="24" height="24" viewBox="0 0 24 24">
  <g id="Raggruppa_859" data-name="Raggruppa 859" transform="translate(-97 -289.087)">
    <g id="Voice" transform="translate(101 291.087)">
      <path id="Stroke_1" data-name="Stroke 1" d="M.524,3.161V0" transform="translate(7.476 16.839)" fill="none" stroke="#000" stroke-linecap="round" stroke-linejoin="round" stroke-miterlimit="10" stroke-width="2"/>
      <path id="Stroke_3" data-name="Stroke 3" d="M4.062,12.848h0A4.071,4.071,0,0,1,0,8.768V4.081a4.062,4.062,0,1,1,8.124,0V8.768A4.07,4.07,0,0,1,4.062,12.848Z" transform="translate(3.938 0)" fill="none" stroke="#000" stroke-linecap="round" stroke-linejoin="round" stroke-miterlimit="10" stroke-width="2"/>
      <path id="Stroke_5" data-name="Stroke 5" d="M16,0A8.019,8.019,0,0,1,8,8.038,8.019,8.019,0,0,1,0,0" transform="translate(0 8.801)" fill="none" stroke="#000" stroke-linecap="round" stroke-linejoin="round" stroke-miterlimit="10" stroke-width="2"/>
    </g>
    <rect id="Rettangolo_2169" data-name="Rettangolo 2169" width="24" height="24" transform="translate(97 289.087)" fill="none"/>
  </g>
</svg>
