<svg xmlns="http://www.w3.org/2000/svg" width="24" height="24" viewBox="0 0 24 24">
  <g id="Raggruppa_808" data-name="Raggruppa 808" transform="translate(-529 -146.087)">
    <g id="Heart" transform="translate(531 149.087)">
      <path id="Stroke_1" data-name="Stroke 1" d="M.391,9.052C-.738,5.525.582,1.494,4.285.3A6.324,6.324,0,0,1,10,1.262,6.372,6.372,0,0,1,15.708.3c3.7,1.193,5.031,5.224,3.9,8.751-1.758,5.59-9.609,9.9-9.609,9.9S2.209,14.708.391,9.052Z" transform="translate(0 0)" fill="none" stroke="#000" stroke-linecap="round" stroke-linejoin="round" stroke-miterlimit="10" stroke-width="2"/>
      <path id="Stroke_3" data-name="Stroke 3" d="M0,0A2.781,2.781,0,0,1,1.917,2.422" transform="translate(14.293 3.926)" fill="none" stroke="#000" stroke-linecap="round" stroke-linejoin="round" stroke-miterlimit="10" stroke-width="2"/>
    </g>
    <rect id="Rettangolo_2118" data-name="Rettangolo 2118" width="24" height="24" transform="translate(529 146.087)" fill="none"/>
  </g>
</svg>
