<svg xmlns="http://www.w3.org/2000/svg" width="24" height="24" viewBox="0 0 24 24">
  <g id="Raggruppa_852" data-name="Raggruppa 852" transform="translate(-481 -241.087)">
    <g id="Volume_Off" data-name="Volume Off" transform="translate(483 243.087)">
      <path id="Stroke_1" data-name="Stroke 1" d="M13.166,6.078,4.642,14.6a1.475,1.475,0,0,0-.618-.222c-1.621-.117-2.251.07-3.137-.688C-.069,12.876,0,10.7,0,9.1S-.069,5.32.887,4.5c.886-.758,1.516-.56,3.137-.688S9.073-1.258,11.72.3C12.793,1.18,13.085,2.812,13.166,6.078Z" transform="translate(0 0.756)" fill="none" stroke="#000" stroke-linecap="round" stroke-linejoin="round" stroke-miterlimit="10" stroke-width="2"/>
      <path id="Stroke_3" data-name="Stroke 3" d="M5.364,0c-.047,3.592-.327,5.341-1.446,6.251C2.694,6.974,1.306,6.309,0,5.364" transform="translate(7.802 12.396)" fill="none" stroke="#000" stroke-linecap="round" stroke-linejoin="round" stroke-miterlimit="10" stroke-width="2"/>
      <path id="Stroke_5" data-name="Stroke 5" d="M0,20l4.641-4.641,8.524-8.525L20,0" transform="translate(0.002)" fill="none" stroke="#000" stroke-linecap="round" stroke-linejoin="round" stroke-miterlimit="10" stroke-width="2"/>
    </g>
    <rect id="Rettangolo_2162" data-name="Rettangolo 2162" width="24" height="24" transform="translate(481 241.087)" fill="none"/>
  </g>
</svg>
