<svg xmlns="http://www.w3.org/2000/svg" width="24" height="24" viewBox="0 0 24 24">
  <g id="Raggruppa_822" data-name="Raggruppa 822" transform="translate(-145 -145.087)">
    <g id="Folder" transform="translate(146.25 146.337)">
      <path id="Stroke_1" data-name="Stroke 1" d="M19.971,14.046c0,3.728-2.2,5.925-5.925,5.925H5.938C2.2,19.971,0,17.774,0,14.046V5.92C0,2.2,1.369,0,5.1,0H7.181a2.375,2.375,0,0,1,1.9.951l.951,1.265a2.385,2.385,0,0,0,1.9.951h2.948C18.621,3.167,20,5.07,20,8.873Z" transform="translate(0.75 0.75)" fill="none" stroke="#000" stroke-linecap="round" stroke-linejoin="round" stroke-miterlimit="10" stroke-width="2"/>
      <path id="Stroke_3" data-name="Stroke 3" d="M0,.5H8.735" transform="translate(6.383 12.974)" fill="none" stroke="#000" stroke-linecap="round" stroke-linejoin="round" stroke-miterlimit="10" stroke-width="2"/>
    </g>
    <rect id="Rettangolo_2089" data-name="Rettangolo 2089" width="24" height="24" transform="translate(145 145.087)" fill="none"/>
  </g>
</svg>
