<svg xmlns="http://www.w3.org/2000/svg" width="24" height="24" viewBox="0 0 24 24">
  <g id="Raggruppa_798" data-name="Raggruppa 798" transform="translate(-99 -191.087)">
    <g id="Scan" transform="translate(101 195.087)">
      <path id="Stroke_1" data-name="Stroke 1" d="M20,.5H0" transform="translate(0 8.505)" fill="none" stroke="#000" stroke-linecap="round" stroke-linejoin="round" stroke-miterlimit="10" stroke-width="2"/>
      <path id="Stroke_3" data-name="Stroke 3" d="M4.7,5V3.554A3.555,3.555,0,0,0,1.148,0H0" transform="translate(13.516)" fill="none" stroke="#000" stroke-linecap="round" stroke-linejoin="round" stroke-miterlimit="10" stroke-width="2"/>
      <path id="Stroke_5" data-name="Stroke 5" d="M0,5V3.554A3.555,3.555,0,0,1,3.555,0H4.732" transform="translate(1.781)" fill="none" stroke="#000" stroke-linecap="round" stroke-linejoin="round" stroke-miterlimit="10" stroke-width="2"/>
      <path id="Stroke_7" data-name="Stroke 7" d="M4.7,0V3.88A3.555,3.555,0,0,1,1.148,7.435H0" transform="translate(13.516 9.004)" fill="none" stroke="#000" stroke-linecap="round" stroke-linejoin="round" stroke-miterlimit="10" stroke-width="2"/>
      <path id="Stroke_9" data-name="Stroke 9" d="M0,0V3.88A3.555,3.555,0,0,0,3.555,7.435H4.732" transform="translate(1.781 9.004)" fill="none" stroke="#000" stroke-linecap="round" stroke-linejoin="round" stroke-miterlimit="10" stroke-width="2"/>
    </g>
    <rect id="Rettangolo_2090" data-name="Rettangolo 2090" width="24" height="24" transform="translate(99 191.087)" fill="none"/>
  </g>
</svg>
