<svg xmlns="http://www.w3.org/2000/svg" width="24" height="24" viewBox="0 0 24 24">
  <g id="Raggruppa_793" data-name="Raggruppa 793" transform="translate(-529 -242.087)">
    <g id="Star" transform="translate(531 245.087)">
      <path id="Stroke_1" data-name="Stroke 1" d="M11.227.752l2.03,4.056a1.364,1.364,0,0,0,1.029.738l4.542.654a1.344,1.344,0,0,1,.757,2.3L16.3,11.658a1.337,1.337,0,0,0-.393,1.195l.775,4.456A1.364,1.364,0,0,1,14.7,18.73l-4.06-2.105a1.387,1.387,0,0,0-1.274,0L5.3,18.73a1.363,1.363,0,0,1-1.984-1.422l.774-4.456A1.337,1.337,0,0,0,3.7,11.658L.415,8.5a1.344,1.344,0,0,1,.757-2.3l4.542-.654a1.366,1.366,0,0,0,1.03-.738L8.773.752A1.377,1.377,0,0,1,11.227.752Z" transform="translate(0 0)" fill="none" stroke="#000" stroke-linecap="round" stroke-linejoin="round" stroke-miterlimit="10" stroke-width="2"/>
    </g>
    <rect id="Rettangolo_2094" data-name="Rettangolo 2094" width="24" height="24" transform="translate(529 242.087)" fill="none"/>
  </g>
</svg>
