<svg xmlns="http://www.w3.org/2000/svg" width="24" height="24" viewBox="0 0 24 24">
  <g id="Raggruppa_828" data-name="Raggruppa 828" transform="translate(-673 -145.087)">
    <g id="Paper_Negative" data-name="Paper Negative" transform="translate(676.25 146.337)">
      <path id="Stroke_1" data-name="Stroke 1" d="M11.419,0H4.176A4.158,4.158,0,0,0,0,4.061V15.874a4.045,4.045,0,0,0,3.973,4.113c.066,0,.134,0,.2,0h8.7a4.1,4.1,0,0,0,4.062-4.111V5.747Z" transform="translate(0.75 0.763)" fill="none" stroke="#000" stroke-linecap="round" stroke-linejoin="round" stroke-miterlimit="10" stroke-width="2"/>
      <path id="Stroke_3" data-name="Stroke 3" d="M0,0V3.168a2.8,2.8,0,0,0,2.8,2.8h3" transform="translate(11.882 0.75)" fill="none" stroke="#000" stroke-linecap="round" stroke-linejoin="round" stroke-miterlimit="10" stroke-width="2"/>
      <path id="Stroke_5" data-name="Stroke 5" d="M5.336.5H0" transform="translate(6.35 12.225)" fill="none" stroke="#000" stroke-linecap="round" stroke-linejoin="round" stroke-miterlimit="10" stroke-width="2"/>
    </g>
    <rect id="Rettangolo_2138" data-name="Rettangolo 2138" width="24" height="24" transform="translate(673 145.087)" fill="none"/>
  </g>
</svg>
