<svg xmlns="http://www.w3.org/2000/svg" width="24" height="24" viewBox="0 0 24 24">
  <g id="Raggruppa_836" data-name="Raggruppa 836" transform="translate(-289 -193.087)">
    <g id="Video" transform="translate(291 198.087)">
      <path id="Stroke_1" data-name="Stroke 1" d="M14.665,10.9a3.512,3.512,0,0,1-3.46,3.579c-.147.006-7.312-.008-7.312-.008a3.556,3.556,0,0,1-3.88-3.148C0,11.184,0,3.592,0,3.592A3.514,3.514,0,0,1,3.459,0c.149-.007,7.3.006,7.3.006a3.572,3.572,0,0,1,3.893,3.17C14.668,3.317,14.665,10.9,14.665,10.9Z" transform="translate(0)" fill="none" stroke="#000" stroke-linecap="round" stroke-linejoin="round" stroke-miterlimit="10" stroke-width="2"/>
      <path id="Stroke_3" data-name="Stroke 3" d="M0,3.126,3.293.3A1.244,1.244,0,0,1,5.332,1.313L5.32,9.023a1.243,1.243,0,0,1-2.04,1.009L0,7.205" transform="translate(14.668 2)" fill="none" stroke="#000" stroke-linecap="round" stroke-linejoin="round" stroke-miterlimit="10" stroke-width="2"/>
    </g>
    <rect id="Rettangolo_2146" data-name="Rettangolo 2146" width="24" height="24" transform="translate(289 193.087)" fill="none"/>
  </g>
</svg>
