<svg xmlns="http://www.w3.org/2000/svg" width="24" height="24" viewBox="0 0 24 24">
  <g id="Raggruppa_784" data-name="Raggruppa 784" transform="translate(-242 -289.087)">
    <g id="Edit" transform="translate(244 291.087)">
      <path id="Stroke_1" data-name="Stroke 1" d="M0,.557H8.316" transform="translate(12.323 19.443)" fill="none" stroke="#000" stroke-linecap="round" stroke-linejoin="round" stroke-miterlimit="10" stroke-width="2"/>
      <path id="Stroke_3" data-name="Stroke 3" d="M11.214.911A2.574,2.574,0,0,1,14.787.564l1.987,1.545A2.456,2.456,0,0,1,17.6,5.53C17.56,5.592,6.664,19.222,6.664,19.222a1.948,1.948,0,0,1-1.5.726L.99,20,.05,16.021a1.868,1.868,0,0,1,.363-1.6Z" transform="translate(0 0)" fill="none" stroke="#000" stroke-linecap="round" stroke-linejoin="round" stroke-miterlimit="10" stroke-width="2"/>
      <path id="Stroke_5" data-name="Stroke 5" d="M0,0,6.251,4.8" transform="translate(9.197 3.441)" fill="none" stroke="#000" stroke-linecap="round" stroke-linejoin="round" stroke-miterlimit="10" stroke-width="2"/>
    </g>
    <rect id="Rettangolo_2091" data-name="Rettangolo 2091" width="24" height="24" transform="translate(242 289.087)" fill="none"/>
  </g>
</svg>
