<svg xmlns="http://www.w3.org/2000/svg" width="24" height="24" viewBox="0 0 24 24">
  <g id="Raggruppa_860" data-name="Raggruppa 860" transform="translate(-146 -289.087)">
    <g id="Voice_2" data-name="Voice 2" transform="translate(150 291.087)">
      <path id="Stroke_1" data-name="Stroke 1" d="M.524,3.161V0" transform="translate(7.476 16.839)" fill="none" stroke="#000" stroke-linecap="round" stroke-linejoin="round" stroke-miterlimit="10" stroke-width="2"/>
      <path id="Stroke_3" data-name="Stroke 3" d="M4.062,12.848h0A4.07,4.07,0,0,1,0,8.768V4.081a4.061,4.061,0,1,1,8.123,0V8.768A4.07,4.07,0,0,1,4.062,12.848Z" transform="translate(3.938 0)" fill="none" stroke="#000" stroke-linecap="round" stroke-linejoin="round" stroke-miterlimit="10" stroke-width="2"/>
      <path id="Stroke_5" data-name="Stroke 5" d="M16,0A8.019,8.019,0,0,1,8,8.038,8.019,8.019,0,0,1,0,0" transform="translate(0 8.801)" fill="none" stroke="#000" stroke-linecap="round" stroke-linejoin="round" stroke-miterlimit="10" stroke-width="2"/>
      <path id="Stroke_7" data-name="Stroke 7" d="M0,.526H1.99" transform="translate(10.069 4.229)" fill="none" stroke="#000" stroke-linecap="round" stroke-linejoin="round" stroke-miterlimit="10" stroke-width="2"/>
      <path id="Stroke_9" data-name="Stroke 9" d="M0,.526H2.99" transform="translate(9.07 7.567)" fill="none" stroke="#000" stroke-linecap="round" stroke-linejoin="round" stroke-miterlimit="10" stroke-width="2"/>
    </g>
    <rect id="Rettangolo_2170" data-name="Rettangolo 2170" width="24" height="24" transform="translate(146 289.087)" fill="none"/>
  </g>
</svg>
