<svg xmlns="http://www.w3.org/2000/svg" width="24" height="24" viewBox="0 0 24 24">
  <g id="Raggruppa_868" data-name="Raggruppa 868" transform="translate(-913 -288.087)">
    <g id="Call_Silent" data-name="Call Silent" transform="translate(914.399 289.487)">
      <path id="Stroke_1" data-name="Stroke 1" d="M4.173,12.152C-2.562,4.522.806,2.24,1.1,1.87,4.317-1.389,4.815.094,7.34,2.656c2.127,2.169-.63,3.2.5,5.776" transform="translate(0.6 0.6)" fill="none" stroke="#000" stroke-linecap="round" stroke-linejoin="round" stroke-miterlimit="10" stroke-width="2"/>
      <path id="Stroke_3" data-name="Stroke 3" d="M3.446,0c3.435,2.821,4.4-1.214,6.836,1.259,2.51,2.562,3.953,3.079.771,6.327C10.678,7.911,8.268,11.609,0,3.517" transform="translate(7.511 11.891)" fill="none" stroke="#000" stroke-linecap="round" stroke-linejoin="round" stroke-miterlimit="10" stroke-width="2"/>
      <path id="Stroke_5" data-name="Stroke 5" d="M.492,17.656,16.2.9" transform="translate(2.097 2.735)" fill="none" stroke="#000" stroke-linecap="round" stroke-linejoin="round" stroke-miterlimit="10" stroke-width="2"/>
    </g>
    <rect id="Rettangolo_2178" data-name="Rettangolo 2178" width="24" height="24" transform="translate(913 288.087)" fill="none"/>
  </g>
</svg>
