<svg xmlns="http://www.w3.org/2000/svg" width="24" height="24" viewBox="0 0 24 24">
  <g id="Raggruppa_844" data-name="Raggruppa 844" transform="translate(-772 -193.087)">
    <g id="Buy" transform="translate(773.25 194.338)">
      <path id="Stroke_1" data-name="Stroke 1" d="M0,0,2.249.389l1.041,12.4a1.945,1.945,0,0,0,1.946,1.787H17.029a1.946,1.946,0,0,0,1.93-1.671l1.026-7.09a1.45,1.45,0,0,0-1.227-1.642c-.069-.01-16.148-.015-16.148-.015" transform="translate(0.75 0.75)" fill="none" stroke="#000" stroke-linecap="round" stroke-linejoin="round" stroke-miterlimit="10" stroke-width="2"/>
      <path id="Stroke_3" data-name="Stroke 3" d="M0,.5H3" transform="translate(13.047 8.407)" fill="none" stroke="#000" stroke-linecap="round" stroke-linejoin="round" stroke-miterlimit="10" stroke-width="2"/>
      <path id="Stroke_5" data-name="Stroke 5" d="M.588,0A.589.589,0,1,1,0,.588.588.588,0,0,1,.588,0Z" transform="translate(4.923 19.077)" stroke="#000" stroke-linecap="round" stroke-linejoin="round" stroke-miterlimit="10" stroke-width="2"/>
      <path id="Stroke_7" data-name="Stroke 7" d="M.588,0A.589.589,0,1,1,0,.588.589.589,0,0,1,.588,0Z" transform="translate(17.118 19.077)" stroke="#000" stroke-linecap="round" stroke-linejoin="round" stroke-miterlimit="10" stroke-width="2"/>
    </g>
    <rect id="Rettangolo_2154" data-name="Rettangolo 2154" width="24" height="24" transform="translate(772 193.087)" fill="none"/>
  </g>
</svg>
