<svg xmlns="http://www.w3.org/2000/svg" width="24" height="24" viewBox="0 0 24 24">
  <g id="Raggruppa_776" data-name="Raggruppa 776" transform="translate(-335 -341.087)">
    <g id="Upload" transform="translate(337 343.087)">
      <g id="Upload-2" data-name="Upload" transform="translate(0 20) rotate(-90)">
        <path id="Stroke_1" data-name="Stroke 1" d="M12.863,4.859V3.877A3.874,3.874,0,0,0,8.992,0H3.87A3.874,3.874,0,0,0,0,3.877v11.71a3.874,3.874,0,0,0,3.87,3.877H9A3.864,3.864,0,0,0,12.863,15.6v-.992" fill="none" stroke="#000" stroke-linecap="round" stroke-linejoin="round" stroke-miterlimit="10" stroke-width="2"/>
        <path id="Stroke_3" data-name="Stroke 3" d="M12.65,0H0" transform="translate(7.35 9.732)" fill="none" stroke="#000" stroke-linecap="round" stroke-linejoin="round" stroke-miterlimit="10" stroke-width="2"/>
        <path id="Stroke_5" data-name="Stroke 5" d="M0,0,3.076,3.067,0,6.135" transform="translate(16.924 6.665)" fill="none" stroke="#000" stroke-linecap="round" stroke-linejoin="round" stroke-miterlimit="10" stroke-width="2"/>
      </g>
    </g>
    <rect id="Rettangolo_2083" data-name="Rettangolo 2083" width="24" height="24" transform="translate(335 341.087)" fill="none"/>
  </g>
</svg>
