<svg xmlns="http://www.w3.org/2000/svg" width="24" height="24" viewBox="0 0 24 24">
  <g id="Raggruppa_858" data-name="Raggruppa 858" transform="translate(-1010 -241.087)">
    <g id="Upload" transform="translate(1012 243.087)">
      <g id="Upload-2" data-name="Upload" transform="translate(0 20) rotate(-90)">
        <path id="Stroke_1" data-name="Stroke 1" d="M12.863,4.851v-.98A3.872,3.872,0,0,0,8.992,0H3.87A3.871,3.871,0,0,0,0,3.871V15.564a3.871,3.871,0,0,0,3.87,3.871H9a3.861,3.861,0,0,0,3.861-3.86v-.991" transform="translate(0)" fill="none" stroke="#000" stroke-linecap="round" stroke-linejoin="round" stroke-miterlimit="10" stroke-width="2"/>
        <path id="Stroke_3" data-name="Stroke 3" d="M12.65,0H0" transform="translate(7.35 9.718)" fill="none" stroke="#000" stroke-linecap="round" stroke-linejoin="round" stroke-miterlimit="10" stroke-width="2"/>
        <path id="Stroke_5" data-name="Stroke 5" d="M0,0,3.076,3.062,0,6.126" transform="translate(16.924 6.655)" fill="none" stroke="#000" stroke-linecap="round" stroke-linejoin="round" stroke-miterlimit="10" stroke-width="2"/>
      </g>
    </g>
    <rect id="Rettangolo_2168" data-name="Rettangolo 2168" width="24" height="24" transform="translate(1010 241.087)" fill="none"/>
  </g>
</svg>
