<svg xmlns="http://www.w3.org/2000/svg" width="512" height="512" viewBox="0 0 24 24">
  <g id="Raggruppa_823" data-name="Raggruppa 823" transform="translate(-194 -145.087)">
    <g id="Wallet" transform="translate(196 148.087)">
      <path id="Stroke_1" data-name="Stroke 1" d="M6.74,5.383H2.692A2.691,2.691,0,1,1,2.692,0H6.74" transform="translate(13.26 6.402)" fill="none" stroke="#000" stroke-linecap="round" stroke-linejoin="round" stroke-miterlimit="10" stroke-width="2"/>
      <path id="Stroke_3" data-name="Stroke 3" d="M.612.456H.3" transform="translate(15.634 8.576)" fill="none" stroke="#000" stroke-linecap="round" stroke-linejoin="round" stroke-miterlimit="10" stroke-width="2"/>
      <path id="Stroke_5" data-name="Stroke 5" d="M5.484,0h9.032A5.484,5.484,0,0,1,20,5.484v7.5a5.484,5.484,0,0,1-5.484,5.484H5.484A5.484,5.484,0,0,1,0,12.984v-7.5A5.484,5.484,0,0,1,5.484,0Z" transform="translate(0 0)" fill="none" stroke="#000" stroke-linecap="round" stroke-linejoin="round" stroke-miterlimit="10" stroke-width="2"/>
      <path id="Stroke_7" data-name="Stroke 7" d="M0,.456H5.4" transform="translate(4.82 4.287)" fill="none" stroke="#000" stroke-linecap="round" stroke-linejoin="round" stroke-miterlimit="10" stroke-width="2"/>
    </g>
    <rect id="Rettangolo_2133" data-name="Rettangolo 2133" width="24" height="24" transform="translate(194 145.087)" fill="none"/>
  </g>
</svg>
