<svg xmlns="http://www.w3.org/2000/svg" width="24" height="24" viewBox="0 0 24 24">
  <g id="Raggruppa_826" data-name="Raggruppa 826" transform="translate(-577 -145.087)">
    <g id="Paper" transform="translate(580.25 146.337)">
      <path id="Stroke_1" data-name="Stroke 1" d="M11.421,0H4.176A4.16,4.16,0,0,0,0,4.061V15.728a4.169,4.169,0,0,0,4.075,4.259c.034,0,.066,0,.1,0h8.7a4.233,4.233,0,0,0,4.061-4.259V5.746Z" transform="translate(0.75 0.763)" fill="none" stroke="#000" stroke-linecap="round" stroke-linejoin="round" stroke-miterlimit="10" stroke-width="2"/>
      <path id="Stroke_3" data-name="Stroke 3" d="M0,0V3.168a2.8,2.8,0,0,0,2.8,2.8h3" transform="translate(11.885 0.75)" fill="none" stroke="#000" stroke-linecap="round" stroke-linejoin="round" stroke-miterlimit="10" stroke-width="2"/>
      <path id="Stroke_5" data-name="Stroke 5" d="M5.881.5H0" transform="translate(5.801 13.981)" fill="none" stroke="#000" stroke-linecap="round" stroke-linejoin="round" stroke-miterlimit="10" stroke-width="2"/>
      <path id="Stroke_7" data-name="Stroke 7" d="M3.655.5H0" transform="translate(5.8 9.894)" fill="none" stroke="#000" stroke-linecap="round" stroke-linejoin="round" stroke-miterlimit="10" stroke-width="2"/>
    </g>
    <rect id="Rettangolo_2136" data-name="Rettangolo 2136" width="24" height="24" transform="translate(577 145.087)" fill="none"/>
  </g>
</svg>
