<svg xmlns="http://www.w3.org/2000/svg" width="24" height="24" viewBox="0 0 24 24">
  <g id="Raggruppa_855" data-name="Raggruppa 855" transform="translate(-770 -241.087)">
    <g id="_2_User" data-name="2 User" transform="translate(771.25 242.338)">
      <path id="Stroke_1" data-name="Stroke 1" d="M7.4,0c3.992,0,7.4.6,7.4,3.022S11.42,6.061,7.4,6.061c-3.994,0-7.4-.6-7.4-3.017S3.389,0,7.4,0Z" transform="translate(0.749 13.69)" fill="none" stroke="#000" stroke-linecap="round" stroke-linejoin="round" stroke-miterlimit="10" stroke-width="2"/>
      <path id="Stroke_3" data-name="Stroke 3" d="M4.747,9.491a4.729,4.729,0,1,1,.034,0Z" transform="translate(3.408 0.75)" fill="none" stroke="#000" stroke-linecap="round" stroke-linejoin="round" stroke-miterlimit="10" stroke-width="2"/>
      <path id="Stroke_5" data-name="Stroke 5" d="M0,7.054a3.573,3.573,0,0,0,3.07-3.53A3.572,3.572,0,0,0,.081,0" transform="translate(15.613 1.955)" fill="none" stroke="#000" stroke-linecap="round" stroke-linejoin="round" stroke-miterlimit="10" stroke-width="2"/>
      <path id="Stroke_7" data-name="Stroke 7" d="M0,0C1.679.25,2.851.839,2.851,2.051c0,.834-.552,1.376-1.444,1.714" transform="translate(17.899 13.177)" fill="none" stroke="#000" stroke-linecap="round" stroke-linejoin="round" stroke-miterlimit="10" stroke-width="2"/>
    </g>
    <rect id="Rettangolo_2165" data-name="Rettangolo 2165" width="24" height="24" transform="translate(770 241.087)" fill="none"/>
  </g>
</svg>
