<svg xmlns="http://www.w3.org/2000/svg" width="19.992" height="19.992" viewBox="0 0 19.992 19.992">
  <g id="Raggruppa_978" data-name="Raggruppa 978" transform="translate(-343.5 -539.5)">
    <path id="Stroke_1" data-name="Stroke 1" d="M4.781,17.992h8.431c2.937,0,4.78-2.08,4.78-5.024V5.024C17.992,2.08,16.159,0,13.212,0H4.781C1.834,0,0,2.08,0,5.024v7.944C0,15.912,1.834,17.992,4.781,17.992Z" transform="translate(344.5 558.492) rotate(-90)" fill="none" stroke="#e30000" stroke-linecap="round" stroke-linejoin="round" stroke-miterlimit="10" stroke-width="2"/>
    <g id="Raggruppa_976" data-name="Raggruppa 976" transform="translate(350.442 545.53)">
      <path id="Stroke_3" data-name="Stroke 3" d="M0,6.841V0" transform="translate(0.025 3.138) rotate(-90)" fill="none" stroke="#e30000" stroke-linecap="round" stroke-linejoin="round" stroke-miterlimit="10" stroke-width="2"/>
      <path id="Stroke_3-2" data-name="Stroke 3" d="M0,4.855V0" transform="translate(0 8.017) rotate(180)" fill="none" stroke="#e30000" stroke-linecap="round" stroke-linejoin="round" stroke-miterlimit="10" stroke-width="2"/>
      <path id="Stroke_5" data-name="Stroke 5" d="M6.275,0,3.138,3.151,0,0" transform="translate(3.715 6.275) rotate(-90)" fill="none" stroke="#e30000" stroke-linecap="round" stroke-linejoin="round" stroke-miterlimit="10" stroke-width="2"/>
    </g>
  </g>
</svg>
