<svg xmlns="http://www.w3.org/2000/svg" width="24" height="24" viewBox="0 0 24 24">
  <g id="Raggruppa_869" data-name="Raggruppa 869" transform="translate(-961 -288.087)">
    <g id="Lock" transform="translate(964.25 289.338)">
      <path id="Stroke_1" data-name="Stroke 1" d="M9.861,7.241V4.92A4.93,4.93,0,0,0,0,4.9V7.241" transform="translate(4.05 0.75)" fill="none" stroke="#000" stroke-linecap="round" stroke-linejoin="round" stroke-miterlimit="10" stroke-width="2"/>
      <path id="Stroke_3" data-name="Stroke 3" d="M12.36,12.836H4.1A4.1,4.1,0,0,1,0,8.736V4.1A4.1,4.1,0,0,1,4.1,0H12.36a4.1,4.1,0,0,1,4.1,4.1V8.736A4.1,4.1,0,0,1,12.36,12.836Z" transform="translate(0.75 7.914)" fill="none" stroke="#000" stroke-linecap="round" stroke-linejoin="round" stroke-miterlimit="10" stroke-width="2"/>
      <path id="Stroke_5" data-name="Stroke 5" d="M.5,0V2.4" transform="translate(8.48 13.131)" fill="none" stroke="#000" stroke-linecap="round" stroke-linejoin="round" stroke-miterlimit="10" stroke-width="2"/>
    </g>
    <rect id="Rettangolo_2179" data-name="Rettangolo 2179" width="24" height="24" transform="translate(961 288.087)" fill="none"/>
  </g>
</svg>
