<?xml version="1.0" encoding="utf-8"?>
<!-- Generator: Adobe Illustrator 26.0.3, SVG Export Plug-In . SVG Version: 6.00 Build 0)  -->
<svg version="1.1" id="Livello_1" xmlns="http://www.w3.org/2000/svg" xmlns:xlink="http://www.w3.org/1999/xlink" x="0px" y="0px"
	 viewBox="0 0 24 24" style="enable-background:new 0 0 24 24;" xml:space="preserve">
<style type="text/css">
	.st0{stroke:#000000;stroke-width:0.3527;stroke-miterlimit:10;}
</style>
<g>
	<path class="st0" d="M21.7,14.2c-0.1-0.2-0.3-0.4-0.6-0.6l0.3-0.2c0.3-0.2,0.6-0.5,0.7-0.8c0.1-0.3,0.1-0.7-0.1-1.1v0
		c-0.1-0.3-0.4-0.5-0.6-0.6l0.3-0.1c0.3-0.2,0.6-0.5,0.7-0.8c0.1-0.3,0.1-0.7-0.1-1.1c-0.2-0.3-0.5-0.6-0.8-0.7
		c-0.3-0.1-0.7-0.1-1.1,0.1L20,8.6c0-0.3,0-0.6-0.2-0.8c-0.2-0.3-0.5-0.6-0.8-0.7C18.7,7,18.3,7,17.9,7.2L16.6,8
		c-0.1-0.3-0.4-0.6-0.8-0.8h0C15.5,7,15.2,7,14.8,7L15,6.7c0.2-0.4,0.2-0.8,0.1-1.2c-0.1-0.4-0.4-0.7-0.8-0.9
		c-0.4-0.2-0.8-0.2-1.2-0.1c-0.4,0.1-0.7,0.4-0.9,0.8l-0.2,0.3c-0.2-0.3-0.4-0.5-0.7-0.6c-0.4-0.2-0.8-0.2-1.2-0.1
		C9.6,5.1,9.3,5.3,9.1,5.7l-3.4,6.9c-0.1,0.1-0.1,0.2-0.2,0.3l0,0l-0.2,0.4l0-0.1C5.2,13,5.1,12.6,5,12.5c-0.3-0.9-0.9-1.4-1.5-1.5
		c-0.3,0-0.5,0-0.8,0.1c-0.2,0.1-0.5,0.3-0.7,0.5c-0.4,0.5-0.6,1.3-0.2,2.3l0,0l0,0l0,0c0.4,1.3,1.5,5.2,2.6,6.4
		c1.4,1.5,5,3,6.9,2.3c1.1-0.4,2-1.2,2.5-2.3l0.2-0.4c2.3-1.3,4.7-2.6,7-3.8c0.3-0.2,0.6-0.5,0.7-0.8C21.9,15,21.9,14.6,21.7,14.2
		L21.7,14.2L21.7,14.2z M16.7,8.6c0.5-0.3,1-0.6,1.6-0.9c0.2-0.1,0.4-0.1,0.6-0.1c0.2,0.1,0.4,0.2,0.5,0.4c0.1,0.2,0.1,0.4,0.1,0.6
		S19.2,9,19,9.1L17.4,10c-0.1,0-0.1-0.1-0.2-0.1l0,0c-0.3-0.1-0.6-0.2-0.9-0.1l0.2-0.4C16.6,9.1,16.7,8.9,16.7,8.6L16.7,8.6z
		 M17.9,10.4L20.6,9c0.2-0.1,0.4-0.1,0.6-0.1c0.2,0.1,0.4,0.2,0.5,0.4c0.1,0.2,0.1,0.4,0.1,0.6c-0.1,0.2-0.2,0.4-0.4,0.5l-3.4,1.9
		L18,12c0.2-0.4,0.2-0.8,0.1-1.2C18,10.7,18,10.6,17.9,10.4L17.9,10.4z M17.4,13.2l3-1.6c0.2-0.1,0.4-0.1,0.6-0.1s0.4,0.2,0.5,0.4
		c0.1,0.2,0.1,0.4,0.1,0.6c-0.1,0.2-0.2,0.4-0.4,0.5l-4,2.2l0.3,0.6l2.7-1.5c0.2-0.1,0.4-0.1,0.6-0.1s0.4,0.2,0.5,0.4
		c0.1,0.2,0.1,0.4,0.1,0.6c-0.1,0.2-0.2,0.4-0.4,0.5c-2.1,1.1-4.1,2.3-6.2,3.4L17.4,13.2L17.4,13.2z M13.3,20.1
		C12.8,21,12,21.7,11.1,22c-1.7,0.6-5-0.8-6.1-2.1c-1-1.1-2.1-5.2-2.4-6.2c0,0,0,0,0,0l-0.3,0.1l0.3-0.1c-0.3-0.7-0.2-1.3,0.1-1.6
		c0.1-0.1,0.2-0.2,0.4-0.3c0.1-0.1,0.3-0.1,0.4-0.1c0.4,0.1,0.7,0.4,0.9,1c0,0.1,0.2,0.5,0.3,0.9c0.1,0.3,0.3,0.7,0.4,0.8
		c0,0.1,0.1,0.1,0.2,0.1l0,0h0.3l0.7-1.3c1.2-2.4,2.4-4.8,3.5-7.2c0.1-0.2,0.3-0.4,0.5-0.4c0.2-0.1,0.5-0.1,0.7,0
		c0.2,0.1,0.4,0.3,0.4,0.5c0.1,0.2,0.1,0.5,0,0.7L9,11.5l0.7,0.3l3-6.2c0.1-0.2,0.3-0.4,0.5-0.4c0.2-0.1,0.5-0.1,0.7,0
		c0.2,0.1,0.4,0.3,0.4,0.5c0.1,0.2,0.1,0.5,0,0.7l-3,6.2L12,13l2.3-4.7c0.1-0.2,0.3-0.4,0.5-0.4c0.2-0.1,0.5-0.1,0.7,0
		c0.2,0.1,0.4,0.3,0.4,0.5C16,8.6,16,8.8,15.9,9l-2.3,4.7l0.7,0.3l1.5-3.1c0.1-0.2,0.3-0.4,0.5-0.4c0.2-0.1,0.5-0.1,0.7,0
		c0.2,0.1,0.4,0.3,0.4,0.5c0.1,0.2,0.1,0.5,0,0.7C16,14.5,14.6,17.3,13.3,20.1L13.3,20.1z M16.1,3.7c0,0.2-0.2,0.4-0.4,0.4
		c-0.2,0-0.4-0.2-0.4-0.4l0-2.1c0-0.2,0.2-0.4,0.4-0.4c0.2,0,0.4,0.2,0.4,0.4L16.1,3.7L16.1,3.7z M18.4,3.7
		c-0.1,0.2-0.4,0.3-0.6,0.2c-0.2-0.1-0.3-0.4-0.2-0.6l0.8-1.9c0.1-0.2,0.4-0.3,0.6-0.2c0.2,0.1,0.3,0.4,0.2,0.6L18.4,3.7L18.4,3.7z
		 M19.3,5.8c-0.2,0.1-0.5,0.1-0.6-0.1c-0.1-0.2-0.1-0.5,0.1-0.6l1.9-1.4c0.2-0.1,0.5-0.1,0.6,0.1c0.1,0.2,0.1,0.5-0.1,0.6L19.3,5.8
		L19.3,5.8z"/>
</g>
</svg>
