<svg xmlns="http://www.w3.org/2000/svg" width="24" height="24" viewBox="0 0 24 24">
  <g id="Raggruppa_809" data-name="Raggruppa 809" transform="translate(-481 -145.087)">
    <g id="Chat" transform="translate(483 147.087)">
      <path id="Stroke_4" data-name="Stroke 4" d="M17.071,17.07a10.006,10.006,0,0,1-11.285,2,4.048,4.048,0,0,0-1.421-.4c-1.187.007-2.664,1.158-3.432.391s.384-2.246.384-3.44a3.994,3.994,0,0,0-.391-1.414A10,10,0,1,1,17.071,17.07Z" fill="none" stroke="#000" stroke-linecap="round" stroke-linejoin="round" stroke-miterlimit="10" stroke-width="2"/>
      <path id="Stroke_11" data-name="Stroke 11" d="M.5.5H.5" transform="translate(13.444 9.913)" fill="none" stroke="#000" stroke-linecap="round" stroke-linejoin="round" stroke-miterlimit="10" stroke-width="2"/>
      <path id="Stroke_13" data-name="Stroke 13" d="M.5.5H.5" transform="translate(9.435 9.913)" fill="none" stroke="#000" stroke-linecap="round" stroke-linejoin="round" stroke-miterlimit="10" stroke-width="2"/>
      <path id="Stroke_15" data-name="Stroke 15" d="M.5.5H.5" transform="translate(5.426 9.913)" fill="none" stroke="#000" stroke-linecap="round" stroke-linejoin="round" stroke-miterlimit="10" stroke-width="2"/>
    </g>
    <rect id="Rettangolo_2117" data-name="Rettangolo 2117" width="24" height="24" transform="translate(481 145.087)" fill="none"/>
  </g>
</svg>
