<svg xmlns="http://www.w3.org/2000/svg" width="24" height="24" viewBox="0 0 24 24">
  <g id="Raggruppa_829" data-name="Raggruppa 829" transform="translate(-721 -145.087)">
    <g id="Paper_Fail" data-name="Paper Fail" transform="translate(724.25 146.337)">
      <path id="Stroke_1" data-name="Stroke 1" d="M11.42,0H4.061A4.061,4.061,0,0,0,0,4.061V15.874a4.136,4.136,0,0,0,4.162,4.113l.128,0h8.584a4.1,4.1,0,0,0,4.061-4.111V5.747Z" transform="translate(0.75 0.763)" fill="none" stroke="#000" stroke-linecap="round" stroke-linejoin="round" stroke-miterlimit="10" stroke-width="2"/>
      <path id="Stroke_3" data-name="Stroke 3" d="M0,0V3.168a2.8,2.8,0,0,0,2.8,2.8h3" transform="translate(11.883 0.75)" fill="none" stroke="#000" stroke-linecap="round" stroke-linejoin="round" stroke-miterlimit="10" stroke-width="2"/>
      <path id="Stroke_5" data-name="Stroke 5" d="M3.774,3.774,0,0" transform="translate(7.131 9.932)" fill="none" stroke="#000" stroke-linecap="round" stroke-linejoin="round" stroke-miterlimit="10" stroke-width="2"/>
      <path id="Stroke_7" data-name="Stroke 7" d="M0,3.774,3.774,0" transform="translate(7.132 9.932)" fill="none" stroke="#000" stroke-linecap="round" stroke-linejoin="round" stroke-miterlimit="10" stroke-width="2"/>
    </g>
    <rect id="Rettangolo_2139" data-name="Rettangolo 2139" width="24" height="24" transform="translate(721 145.087)" fill="none"/>
  </g>
</svg>
