<svg xmlns="http://www.w3.org/2000/svg" width="24" height="24" viewBox="0 0 24 24">
  <g id="Raggruppa_832" data-name="Raggruppa 832" transform="translate(-914 -145.087)">
    <g id="Password" transform="translate(915.25 146.337)">
      <path id="Stroke_1" data-name="Stroke 1" d="M14.685,0H5.314C2.048,0,0,2.312,0,5.585v8.83C0,17.688,2.038,20,5.314,20h9.371C17.961,20,20,17.688,20,14.415V5.585C20,2.312,17.961,0,14.685,0Z" transform="translate(0.75 0.75)" fill="none" stroke="#000" stroke-linecap="round" stroke-linejoin="round" stroke-miterlimit="10" stroke-width="2"/>
      <path id="Stroke_3" data-name="Stroke 3" d="M3.7,1.852A1.852,1.852,0,1,1,1.852,0h0A1.852,1.852,0,0,1,3.7,1.852Z" transform="translate(5.414 8.898)" fill="none" stroke="#000" stroke-linecap="round" stroke-linejoin="round" stroke-miterlimit="10" stroke-width="2"/>
      <path id="Stroke_5" data-name="Stroke 5" d="M0,0H6.318V1.852" transform="translate(9.67 10.834)" fill="none" stroke="#000" stroke-linecap="round" stroke-linejoin="round" stroke-miterlimit="10" stroke-width="2"/>
      <path id="Stroke_7" data-name="Stroke 7" d="M.5,1.852V0" transform="translate(12.609 10.834)" fill="none" stroke="#000" stroke-linecap="round" stroke-linejoin="round" stroke-miterlimit="10" stroke-width="2"/>
    </g>
    <rect id="Rettangolo_2142" data-name="Rettangolo 2142" width="24" height="24" transform="translate(914 145.087)" fill="none"/>
  </g>
</svg>
