<svg xmlns="http://www.w3.org/2000/svg" width="21" height="26.067" viewBox="0 0 21 26.067">
  <g id="Raggruppa_1179" data-name="Raggruppa 1179" transform="translate(20 21) rotate(180)">
    <g id="Raggruppa_220" data-name="Raggruppa 220">
      <g id="Home" transform="translate(0 -4.067)">
        <path id="Home-2" data-name="Home" d="M6.657,18.771V15.7a1.426,1.426,0,0,1,1.424-1.419h2.886A1.426,1.426,0,0,1,12.4,15.7h0v3.076A1.225,1.225,0,0,0,13.6,20h1.924A3.456,3.456,0,0,0,19,16.562h0V-2.162a2.439,2.439,0,0,0-.962-1.9H11.547s-3.07.01-4.909.01H.962A2.42,2.42,0,0,0,0-2.153V16.562A3.456,3.456,0,0,0,3.473,20H5.4a1.235,1.235,0,0,0,1.241-1.229h0" transform="translate(0 4.067)" fill="none" stroke="#131313" stroke-linecap="round" stroke-linejoin="round" stroke-miterlimit="10" stroke-width="2"/>
      </g>
    </g>
  </g>
</svg>
