<svg xmlns="http://www.w3.org/2000/svg" width="24" height="24" viewBox="0 0 24 24">
  <g id="Raggruppa_824" data-name="Raggruppa 824" transform="translate(-241 -145.087)">
    <g id="Graph" transform="translate(243 147.087)">
      <path id="Stroke_1" data-name="Stroke 1" d="M14.978,7.987A1.1,1.1,0,0,1,16.116,9.21,8.109,8.109,0,0,1,0,7.935,8.435,8.435,0,0,1,5.957.034,1.085,1.085,0,0,1,7.329,1.041c0,4.728.159,5.952,1.057,6.617S10.34,7.987,14.978,7.987Z" transform="translate(0 3.959)" fill="none" stroke="#000" stroke-linecap="round" stroke-linejoin="round" stroke-miterlimit="10" stroke-width="2"/>
      <path id="Stroke_3" data-name="Stroke 3" d="M8.919,7.852C8.972,4.814,5.241-.083.693,0A.679.679,0,0,0,.041.655c-.115,2.5.04,5.735.126,7.2a.89.89,0,0,0,.841.842,40.645,40.645,0,0,0,7.325-.168A.7.7,0,0,0,8.919,7.852Z" transform="translate(10.627 0)" fill="none" stroke="#000" stroke-linecap="round" stroke-linejoin="round" stroke-miterlimit="10" stroke-width="2"/>
    </g>
    <rect id="Rettangolo_2134" data-name="Rettangolo 2134" width="24" height="24" transform="translate(241 145.087)" fill="none"/>
  </g>
</svg>
