<svg xmlns="http://www.w3.org/2000/svg" width="512" height="512" viewBox="0 0 24 24">
  <g id="Raggruppa_857" data-name="Raggruppa 857" transform="translate(-962 -241.087)">
    <g id="Downlaod" transform="translate(964 244.087)">
      <path id="Stroke_1" data-name="Stroke 1" d="M13.017,0H0" transform="translate(10) rotate(90)" fill="none" stroke="#000" stroke-linecap="round" stroke-linejoin="round" stroke-miterlimit="10" stroke-width="2"/>
      <path id="Stroke_3" data-name="Stroke 3" d="M0,0,3.165,3.152,0,6.3" transform="translate(13.153 9.852) rotate(90)" fill="none" stroke="#000" stroke-linecap="round" stroke-linejoin="round" stroke-miterlimit="10" stroke-width="2"/>
      <path id="Stroke_4" data-name="Stroke 4" d="M0,4.991V3.983A3.982,3.982,0,0,1,3.984,0h5.28a3.972,3.972,0,0,1,3.973,3.973V16.016A3.984,3.984,0,0,1,9.253,20H3.972A3.973,3.973,0,0,1,0,16.027V15.009" transform="translate(20 5.117) rotate(90)" fill="none" stroke="#000" stroke-linecap="round" stroke-linejoin="round" stroke-miterlimit="10" stroke-width="2"/>
    </g>
    <rect id="Rettangolo_2167" data-name="Rettangolo 2167" width="24" height="24" transform="translate(962 241.087)" fill="none"/>
  </g>
</svg>
