<svg xmlns="http://www.w3.org/2000/svg" width="24" height="24" viewBox="0 0 24 24">
  <g id="Raggruppa_848" data-name="Raggruppa 848" transform="translate(-241 -241.087)">
    <g id="Setting" transform="translate(243.222 242.309)">
      <path id="Path_33946" d="M18.238,5.562,17.59,4.438A1.99,1.99,0,0,0,14.876,3.7h0A1.981,1.981,0,0,1,12.161,3a1.9,1.9,0,0,1-.267-.952h0A1.99,1.99,0,0,0,9.9,0H8.6A1.981,1.981,0,0,0,6.619,1.99h0a1.99,1.99,0,0,1-1.99,1.962,1.9,1.9,0,0,1-.952-.267h0a1.99,1.99,0,0,0-2.714.733l-.7,1.143A1.99,1.99,0,0,0,.99,8.276h0a1.99,1.99,0,0,1,1,1.724,1.99,1.99,0,0,1-1,1.724h0a1.981,1.981,0,0,0-.724,2.7h0l.657,1.133a1.99,1.99,0,0,0,2.714.771h0a1.971,1.971,0,0,1,2.7.724,1.9,1.9,0,0,1,.267.952h0A1.99,1.99,0,0,0,8.6,20H9.9a1.99,1.99,0,0,0,1.99-1.981h0a1.981,1.981,0,0,1,1.99-1.99,2.029,2.029,0,0,1,.952.267h0a1.99,1.99,0,0,0,2.714-.724h0l.686-1.143a1.981,1.981,0,0,0-.724-2.714h0A1.981,1.981,0,0,1,16.79,9a1.952,1.952,0,0,1,.724-.724h0a1.99,1.99,0,0,0,.724-2.7h0Z" transform="translate(0.779 0.778)" fill="none" stroke="#000" stroke-linecap="round" stroke-linejoin="round" stroke-miterlimit="10" stroke-width="2"/>
      <circle id="Ellipse_737" cx="2.636" cy="2.636" r="2.636" transform="translate(7.399 8.142)" fill="none" stroke="#000" stroke-linecap="round" stroke-linejoin="round" stroke-miterlimit="10" stroke-width="2"/>
    </g>
    <rect id="Rettangolo_2158" data-name="Rettangolo 2158" width="24" height="24" transform="translate(241 241.087)" fill="none"/>
  </g>
</svg>
