<svg xmlns="http://www.w3.org/2000/svg" width="24" height="24" viewBox="0 0 24 24">
  <g id="Raggruppa_783" data-name="Raggruppa 783" transform="translate(-193 -289.087)">
    <g id="Delete" transform="translate(196 291.087)">
      <path id="Stroke_1" data-name="Stroke 1" d="M15.342,0s-.587,7.281-.928,10.349a2.419,2.419,0,0,1-2.549,2.35c-2.821.051-5.645.054-8.464-.005A2.393,2.393,0,0,1,.927,10.356C.584,7.262,0,0,0,0" transform="translate(1.496 7.262)" fill="none" stroke="#000" stroke-linecap="round" stroke-linejoin="round" stroke-miterlimit="10" stroke-width="2"/>
      <path id="Stroke_3" data-name="Stroke 3" d="M18.334.5H0" transform="translate(0 3.272)" fill="none" stroke="#000" stroke-linecap="round" stroke-linejoin="round" stroke-miterlimit="10" stroke-width="2"/>
      <path id="Stroke_5" data-name="Stroke 5" d="M11.269,3.772A1.782,1.782,0,0,1,9.523,2.341L9.26,1.026A1.384,1.384,0,0,0,7.922,0H3.346A1.384,1.384,0,0,0,2.009,1.026L1.746,2.341A1.782,1.782,0,0,1,0,3.772" transform="translate(3.532)" fill="none" stroke="#000" stroke-linecap="round" stroke-linejoin="round" stroke-miterlimit="10" stroke-width="2"/>
    </g>
    <rect id="Rettangolo_2092" data-name="Rettangolo 2092" width="24" height="24" transform="translate(193 289.087)" fill="none"/>
  </g>
</svg>
