<svg xmlns="http://www.w3.org/2000/svg" width="24" height="24" viewBox="0 0 24 24">
  <g id="Raggruppa_833" data-name="Raggruppa 833" transform="translate(-1009 -145.087)">
    <g id="Work" transform="translate(1010.25 146.338)">
      <path id="Stroke_1" data-name="Stroke 1" d="M.5,2.744V0" transform="translate(10.25 13.07)" fill="none" stroke="#000" stroke-linecap="round" stroke-linejoin="round" stroke-miterlimit="10" stroke-width="2"/>
      <g id="Group_8" data-name="Group 8" transform="translate(0.75 0.75)">
        <path id="Stroke_2" data-name="Stroke 2" d="M16.7,0A3.3,3.3,0,0,1,20,3.31V7.031a20.037,20.037,0,0,1-10.005,2.5A20,20,0,0,1,0,7.031V3.3A3.3,3.3,0,0,1,3.31,0Z" transform="translate(0 2.791)" fill="none" stroke="#000" stroke-linecap="round" stroke-linejoin="round" stroke-miterlimit="10" stroke-width="2"/>
        <path id="Stroke_4" data-name="Stroke 4" d="M7.572,2.786v-.4A2.391,2.391,0,0,0,5.181,0H2.39A2.391,2.391,0,0,0,0,2.39v.4" transform="translate(6.214 0)" fill="none" stroke="#000" stroke-linecap="round" stroke-linejoin="round" stroke-miterlimit="10" stroke-width="2"/>
        <path id="Stroke_6" data-name="Stroke 6" d="M0,0,.2,2.714A3.507,3.507,0,0,0,3.7,5.957H16.247a3.507,3.507,0,0,0,3.5-3.243L19.947,0" transform="translate(0.027 13.773)" fill="none" stroke="#000" stroke-linecap="round" stroke-linejoin="round" stroke-miterlimit="10" stroke-width="2"/>
      </g>
    </g>
    <rect id="Rettangolo_2143" data-name="Rettangolo 2143" width="24" height="24" transform="translate(1009 145.087)" fill="none"/>
  </g>
</svg>
